<svg xmlns="http://www.w3.org/2000/svg" viewBox="0 0 60.98 60.98"><defs><style>.cls-1{fill:#c784fc;}.cls-2{opacity:0.07;}.cls-3{fill:#fff;}</style></defs><g id="Capa_2" data-name="Capa 2"><g id="Capa_1-2" data-name="Capa 1"><rect class="cls-1" width="60.98" height="60.98"/><g class="cls-2"><polygon points="60.98 60.98 0 60.98 0 0 60.98 60.98"/></g><rect class="cls-1" x="18.19" y="16.23" width="25.67" height="30.66"/><path class="cls-3" d="M37.64,47.32H18.72a.69.69,0,0,1-.68-.68V17.33a.69.69,0,0,1,.68-.68H42.13a.69.69,0,0,1,.68.68v4.34a.89.89,0,0,0,1.77,0V17.33a2.45,2.45,0,0,0-2.45-2.45H18.72a2.45,2.45,0,0,0-2.45,2.45V46.64a2.45,2.45,0,0,0,2.45,2.45H37.64a.89.89,0,1,0,0-1.77Z"/><path class="cls-3" d="M37.64,49.39H18.72A2.76,2.76,0,0,1,16,46.64V17.33a2.76,2.76,0,0,1,2.75-2.75H42.13a2.75,2.75,0,0,1,2.75,2.75v4.34a1.19,1.19,0,0,1-2.37,0V17.33a.38.38,0,0,0-.38-.38H18.72a.38.38,0,0,0-.38.38V46.64a.38.38,0,0,0,.38.38H37.64a1.19,1.19,0,1,1,0,2.37ZM18.72,15.18a2.16,2.16,0,0,0-2.15,2.15V46.64a2.16,2.16,0,0,0,2.15,2.15H37.64a.59.59,0,1,0,0-1.17H18.72a1,1,0,0,1-1-1V17.33a1,1,0,0,1,1-1H42.13a1,1,0,0,1,1,1v4.34a.59.59,0,0,0,1.17,0V17.33a2.15,2.15,0,0,0-2.15-2.15Z"/><path class="cls-3" d="M43.7,41.42a.89.89,0,0,0-.89.89v4.33a.69.69,0,0,1-.68.68H37.8a.89.89,0,1,0,0,1.77h4.33a2.45,2.45,0,0,0,2.45-2.45V42.31A.89.89,0,0,0,43.7,41.42Z"/><path class="cls-3" d="M42.13,49.39H37.8a1.19,1.19,0,1,1,0-2.37h4.33a.38.38,0,0,0,.38-.38V42.31a1.19,1.19,0,1,1,2.37,0v4.33A2.75,2.75,0,0,1,42.13,49.39ZM37.8,47.62a.59.59,0,1,0,0,1.17h4.33a2.15,2.15,0,0,0,2.15-2.15V42.31a.59.59,0,1,0-1.17,0v4.33a1,1,0,0,1-1,1Z"/><path class="cls-3" d="M23.05,28.15a.89.89,0,0,0,0,1.77H33.82a.89.89,0,0,0,0-1.77Z"/><path class="cls-3" d="M33.82,30.22H23.05a1.19,1.19,0,0,1,0-2.37H33.82a1.19,1.19,0,0,1,0,2.37ZM23.05,28.45a.59.59,0,0,0-.58.59.58.58,0,0,0,.58.58H33.82A.58.58,0,0,0,34.4,29a.59.59,0,0,0-.58-.59Z"/><path class="cls-3" d="M23.05,35.82h5.22a.89.89,0,1,0,0-1.77H23.05a.89.89,0,0,0,0,1.77Z"/><path class="cls-3" d="M28.27,36.12H23.05a1.19,1.19,0,0,1,0-2.37h5.22a1.19,1.19,0,1,1,0,2.37Zm-5.22-1.77a.59.59,0,0,0,0,1.17h5.22a.59.59,0,1,0,0-1.17Z"/><path class="cls-3" d="M50.74,28.62,46.32,24.2a.88.88,0,0,0-1.25,0L31.8,37.47a.88.88,0,0,0-.23.41l-1.48,5.9a.89.89,0,0,0,.86,1.1.83.83,0,0,0,.22,0l5.89-1.47a.82.82,0,0,0,.41-.24L50.74,29.87A.88.88,0,0,0,50.74,28.62ZM36.4,41.72l-4.23,1.06,1.06-4.23L45.7,26.08l3.17,3.17Z"/><path class="cls-3" d="M31,45.15a1.17,1.17,0,0,1-.81-.34,1.18,1.18,0,0,1-.31-1.1l1.48-5.9a1.08,1.08,0,0,1,.3-.53L44.88,24a1.15,1.15,0,0,1,1.63,0l4.42,4.42a1.14,1.14,0,0,1,0,1.63L37.67,43.33a1.18,1.18,0,0,1-.54.31l-5.9,1.47A1.26,1.26,0,0,1,31,45.15ZM45.7,24.21a.62.62,0,0,0-.44.18L32,37.66a.64.64,0,0,0-.16.29l-1.47,5.89a.64.64,0,0,0,.16.59.62.62,0,0,0,.58.16L37,43.11a.5.5,0,0,0,.28-.16L50.55,29.68a.62.62,0,0,0,0-.87l-4.42-4.42A.61.61,0,0,0,45.7,24.21ZM32.17,43.05A.27.27,0,0,1,32,43a.26.26,0,0,1-.07-.26L33,38.48a.35.35,0,0,1,.07-.12L45.5,25.88a.29.29,0,0,1,.39,0l3.17,3.18a.28.28,0,0,1,0,.38L36.59,41.91a.33.33,0,0,1-.13.07L32.23,43Zm1.3-4.37-.93,3.72,3.72-.93L48.49,29.25,45.7,26.46Zm2.93,3Z"/><circle class="cls-1" cx="17.13" cy="16.8" r="6.68"/><path class="cls-3" d="M16.22,19.24a.58.58,0,0,1-.43-.18L14,17.24a.62.62,0,0,1,0-.87.6.6,0,0,1,.43-.18.6.6,0,0,1,.44.18L16,17.55a.29.29,0,0,0,.42,0l3-3a.62.62,0,0,1,.43-.18.65.65,0,0,1,.44.18.62.62,0,0,1,0,.87l-3.66,3.65A.58.58,0,0,1,16.22,19.24Z"/><path class="cls-3" d="M16.22,19.69a1.06,1.06,0,0,1-.75-.31l-1.83-1.82a1.08,1.08,0,0,1-.31-.76,1.06,1.06,0,0,1,.31-.75,1.1,1.1,0,0,1,1.51,0l1.07,1.08,2.9-2.91a1.08,1.08,0,0,1,1.5,0,1.05,1.05,0,0,1,.32.75,1,1,0,0,1-.32.75L17,19.38A1.06,1.06,0,0,1,16.22,19.69Zm-1.83-3.05a.16.16,0,0,0-.11.05.17.17,0,0,0,0,.11.17.17,0,0,0,0,.12l1.82,1.82a.16.16,0,0,0,.24,0L20,15.09A.17.17,0,0,0,20,15a.17.17,0,0,0-.05-.12.17.17,0,0,0-.23,0l-3,3a.77.77,0,0,1-1.06,0l-1.18-1.18A.17.17,0,0,0,14.39,16.64Zm1.72.59Z"/><path class="cls-3" d="M17.13,25.33a8.53,8.53,0,1,1,8.53-8.53A8.54,8.54,0,0,1,17.13,25.33Zm0-15.56a7,7,0,1,0,7,7A7,7,0,0,0,17.13,9.77Z"/><path class="cls-3" d="M17.13,25.79a9,9,0,1,1,9-9A9,9,0,0,1,17.13,25.79Zm0-17.07a8.08,8.08,0,1,0,8.08,8.08A8.1,8.1,0,0,0,17.13,8.72Zm0,15.57a7.49,7.49,0,1,1,7.49-7.49A7.49,7.49,0,0,1,17.13,24.29Zm0-14.07a6.59,6.59,0,1,0,6.59,6.58A6.59,6.59,0,0,0,17.13,10.22Z"/></g></g></svg>